<?xml version="1.0" standalone="no"?>
<!DOCTYPE svg PUBLIC "-//W3C//DTD SVG 20010904//EN"
 "http://www.w3.org/TR/2001/REC-SVG-20010904/DTD/svg10.dtd">
<svg version="1.0" xmlns="http://www.w3.org/2000/svg"
 width="2480.000000pt" height="3508.000000pt" viewBox="0 0 2480.000000 3508.000000"
 preserveAspectRatio="xMidYMid meet">

<g transform="translate(0.000000,3508.000000) scale(0.100000,-0.100000)"
fill="#000000" stroke="none">
<path d="M13138 31004 c-11 -3 -18 -15 -18 -30 0 -16 -6 -24 -17 -25 -22 -1
-160 -15 -273 -28 -187 -21 -251 -31 -292 -42 -30 -8 -112 -10 -273 -6 -126 4
-369 3 -540 -1 -176 -4 -340 -3 -380 2 -122 16 -218 9 -283 -21 -18 -8 -40
-12 -49 -9 -8 3 -24 -1 -36 -9 -12 -8 -34 -15 -49 -15 -15 0 -30 -4 -33 -10
-3 -5 -18 -10 -33 -10 -15 0 -36 -7 -46 -15 -11 -8 -30 -15 -42 -15 -13 0 -25
-4 -28 -9 -3 -5 -18 -11 -33 -14 -29 -5 -127 -39 -178 -62 -17 -8 -53 -23 -80
-35 -106 -46 -120 -52 -135 -61 -8 -5 -25 -13 -37 -19 -27 -11 -28 -23 -12
-220 19 -252 47 -417 110 -670 11 -47 25 -101 30 -120 9 -38 32 -116 41 -140
4 -8 8 -24 11 -35 3 -11 15 -45 27 -75 12 -30 30 -80 40 -110 33 -98 92 -234
171 -392 51 -102 138 -260 148 -268 3 -3 24 -34 45 -70 22 -36 43 -67 46 -70
7 -5 144 -176 215 -270 22 -29 45 -57 50 -64 24 -28 75 -107 75 -117 0 -6 11
-25 24 -42 13 -18 36 -57 51 -87 38 -75 108 -179 120 -180 6 0 22 -18 35 -40
127 -207 428 -512 753 -763 119 -92 311 -215 360 -231 20 -6 22 -38 6 -119
-13 -63 -24 -72 -34 -27 -4 17 -13 30 -20 30 -8 0 -20 6 -27 14 -8 7 -29 17
-48 21 -55 12 -120 43 -120 57 0 7 -11 14 -25 14 -23 2 -46 16 -119 77 -37 30
-61 36 -52 11 3 -9 6 -18 6 -20 0 -2 9 -4 20 -4 11 0 20 -5 20 -11 0 -6 17
-27 37 -45 20 -19 33 -34 28 -34 -15 0 -75 44 -75 55 0 6 -18 18 -40 28 -22 9
-52 30 -66 47 -15 16 -32 30 -38 30 -6 0 -23 11 -38 25 -15 14 -31 25 -35 25
-4 1 -35 28 -67 60 -33 33 -63 60 -68 60 -4 0 -29 21 -55 46 -27 25 -65 62
-85 81 -21 20 -38 40 -38 44 0 11 -63 69 -74 69 -5 0 5 -13 22 -28 18 -16 32
-34 32 -41 0 -15 194 -211 209 -211 5 0 42 -32 83 -71 40 -40 96 -87 125 -105
28 -19 54 -38 58 -44 8 -13 133 -106 220 -164 39 -26 102 -69 140 -96 39 -27
79 -50 91 -50 42 0 216 112 194 125 -17 10 -12 20 21 39 48 28 102 87 91 98
-6 6 -12 6 -16 -1 -4 -6 -15 -11 -24 -11 -15 0 -15 2 -2 10 11 7 2 9 -30 8
-25 0 -61 4 -80 9 -22 6 -45 6 -63 0 -15 -5 -30 -7 -33 -4 -4 4 63 53 124 92
75 47 330 235 421 310 48 39 266 243 291 271 113 129 149 177 160 208 6 20 16
36 21 36 5 0 26 26 46 58 21 31 41 59 45 62 3 3 10 18 13 33 4 15 11 30 17 33
5 3 14 16 19 27 10 24 20 40 90 144 26 38 55 85 66 104 10 19 35 60 56 92 20
31 37 62 37 67 0 5 10 25 21 45 20 34 20 37 5 54 -16 18 -16 19 1 17 12 0 19
7 21 22 2 12 8 22 13 22 5 0 9 6 9 14 0 7 7 19 15 26 9 7 13 20 10 28 -3 8 3
16 15 19 15 4 19 11 15 24 -4 12 -1 21 9 25 9 3 16 14 16 24 0 10 6 23 14 30
8 6 13 17 10 24 -3 8 2 16 10 19 9 4 16 16 16 27 0 11 7 23 16 27 9 3 14 13
11 23 -2 9 4 22 14 28 10 7 16 18 13 26 -3 7 2 16 10 19 9 4 16 18 16 32 0 16
6 25 16 25 12 0 15 6 10 24 -4 16 -1 26 9 30 8 3 15 16 15 30 0 13 7 26 15 30
8 3 15 17 15 31 0 16 6 25 16 25 13 0 15 7 10 31 -5 28 -4 31 14 26 17 -4 20
0 20 29 0 24 4 32 14 28 17 -6 30 26 16 40 -16 16 -12 26 10 26 14 0 20 7 20
24 0 13 7 29 15 36 8 7 15 25 15 41 0 16 4 29 8 29 9 0 52 107 72 180 6 25 18
59 25 75 26 63 63 161 75 205 12 40 31 91 60 155 5 11 21 59 36 108 26 84 37
101 47 75 3 -7 6 -1 6 13 1 15 9 37 20 50 13 18 20 47 23 107 3 52 10 87 17
92 9 5 12 33 10 97 -3 78 0 94 20 126 12 20 28 37 34 37 20 1 152 104 155 123
2 10 -4 19 -15 23 -10 3 -26 10 -37 15 -13 8 -16 7 -11 -1 10 -17 -28 4 -44
24 -9 10 -22 13 -42 9 -22 -4 -29 -2 -29 11 0 19 -11 21 -28 4 -9 -9 -21 -8
-52 2 -31 10 -49 11 -77 2 -21 -6 -73 -13 -116 -16 -93 -7 -130 -21 -79 -32
18 -4 35 -11 38 -15 9 -15 -27 -23 -47 -11 -10 7 -28 12 -39 12 -11 0 -20 4
-20 10 0 5 -16 12 -35 16 -19 3 -38 10 -41 15 -3 5 -16 9 -30 9 -13 0 -24 5
-24 10 0 6 -8 10 -18 10 -10 0 -47 11 -82 25 -35 14 -74 25 -87 25 -13 0 -23
4 -23 9 0 6 -20 13 -45 17 -25 3 -48 10 -51 15 -3 5 -20 9 -39 9 -19 0 -37 5
-40 10 -3 6 -18 10 -32 10 -15 0 -40 4 -57 9 -130 38 -229 61 -267 61 -17 0
-38 4 -48 9 -9 5 -48 12 -86 16 -37 3 -77 10 -87 16 -10 6 -44 10 -76 10 -31
0 -102 2 -157 4 -55 2 -108 1 -117 -1z m1582 -349 c0 -9 -6 -12 -15 -9 -8 4
-15 10 -15 15 0 5 7 9 15 9 8 0 15 -7 15 -15z m55 -25 c3 -5 -1 -10 -10 -10
-9 0 -13 5 -10 10 3 6 8 10 10 10 2 0 7 -4 10 -10z m-2046 -453 c21 -10 38
-13 45 -8 13 10 243 -21 274 -38 11 -6 39 -11 62 -11 22 0 51 -6 63 -14 12 -8
47 -19 78 -26 31 -6 65 -17 75 -25 11 -8 29 -15 40 -15 30 0 175 -68 194 -91
3 -3 36 -21 73 -38 38 -18 77 -41 87 -51 10 -10 21 -19 26 -21 5 -2 20 -29 34
-59 14 -30 27 -57 30 -60 14 -14 52 -94 65 -137 17 -54 37 -293 30 -356 -3
-23 -7 -78 -9 -122 -5 -87 -24 -174 -42 -190 -6 -5 -19 -62 -28 -125 -20 -137
-35 -190 -53 -190 -7 0 -13 -9 -13 -20 0 -12 -8 -30 -19 -41 -10 -11 -21 -38
-25 -60 -4 -25 -12 -39 -21 -39 -8 0 -15 -7 -15 -15 0 -8 -4 -15 -8 -15 -5 0
-17 -20 -27 -44 -10 -25 -23 -44 -29 -43 -6 1 -11 -10 -11 -25 1 -14 -2 -25
-5 -23 -4 2 -12 -13 -20 -33 -11 -32 -42 -75 -44 -62 -2 10 -46 -36 -46 -48 0
-7 -20 -33 -44 -57 -24 -24 -46 -51 -49 -60 -4 -8 -17 -19 -31 -25 -13 -5 -27
-14 -31 -19 -3 -6 -17 -11 -31 -11 -17 0 -24 -5 -24 -20 0 -11 -6 -20 -14 -20
-8 0 -20 -16 -26 -35 -6 -19 -18 -35 -26 -35 -8 0 -14 -7 -14 -15 0 -8 -6 -15
-12 -15 -7 0 -24 -11 -38 -24 -62 -60 -82 -76 -95 -76 -8 0 -15 -4 -15 -9 0
-5 -29 -19 -65 -31 -36 -12 -65 -26 -65 -31 0 -5 -9 -9 -20 -9 -12 0 -30 -8
-40 -18 -31 -29 -152 -51 -290 -53 -116 -1 -130 1 -190 26 -36 15 -69 31 -75
36 -5 5 -19 9 -32 9 -13 0 -23 6 -23 14 0 8 -15 17 -36 21 -24 4 -38 13 -41
26 -4 12 -14 19 -31 19 -26 0 -51 24 -52 50 0 8 -30 32 -65 54 -36 21 -65 42
-65 47 0 5 -7 9 -15 9 -8 0 -15 6 -15 13 0 7 -9 18 -20 25 -11 7 -20 19 -20
27 0 8 -9 15 -20 15 -11 0 -20 7 -20 15 0 9 -11 20 -24 25 -13 5 -27 18 -31
29 -3 12 -11 21 -16 21 -5 0 -9 7 -9 16 0 9 -18 34 -40 55 -22 22 -40 48 -40
59 0 12 -7 20 -16 20 -9 0 -21 14 -27 30 -6 17 -17 30 -24 30 -7 0 -13 9 -13
20 0 11 -4 20 -9 20 -5 0 -11 8 -15 18 -7 21 -46 89 -46 80 0 -21 -59 57 -64
86 -4 19 -18 56 -32 82 -14 26 -32 75 -40 108 -8 34 -19 70 -23 81 -5 11 -16
58 -26 105 -9 47 -21 103 -27 125 -6 22 -13 76 -15 120 -3 44 -9 85 -13 90 -4
6 -4 64 1 130 11 154 13 176 26 200 6 11 14 37 17 59 8 43 23 73 48 96 9 8 23
38 31 65 8 28 20 49 26 48 5 -2 8 3 5 10 -3 8 11 21 36 33 22 10 40 25 40 32
0 6 5 12 11 12 6 0 22 9 36 20 14 11 34 20 44 20 10 0 24 9 31 20 7 11 22 20
34 20 12 0 27 7 34 15 7 8 16 15 21 15 5 0 27 11 49 25 22 14 48 25 59 25 11
0 22 4 26 9 7 12 90 39 139 46 21 2 58 14 82 26 25 11 51 18 59 15 8 -3 15 -2
15 3 0 5 15 12 33 15 40 8 232 27 272 26 17 0 37 5 45 10 24 17 180 8 219 -13z
m1351 -1977 c0 -5 -7 -7 -15 -4 -8 4 -15 8 -15 10 0 2 7 4 15 4 8 0 15 -4 15
-10z m-1721 -1657 c11 -9 17 -21 14 -26 -3 -4 -14 1 -24 12 -31 33 -23 43 10
14z m408 -99 c-3 -3 -12 -4 -19 -1 -8 3 -5 6 6 6 11 1 17 -2 13 -5z"/>
<path d="M11245 30968 l-30 -20 30 7 c17 4 51 9 77 12 27 3 45 9 42 14 -10 16
-88 8 -119 -13z"/>
<path d="M11280 30900 c0 -5 10 -10 23 -10 18 0 19 2 7 10 -19 13 -30 13 -30
0z"/>
<path d="M14990 30826 c0 -9 5 -16 10 -16 6 0 10 4 10 9 0 6 -4 13 -10 16 -5
3 -10 -1 -10 -9z"/>
<path d="M15040 30800 c0 -5 7 -10 16 -10 8 0 12 5 9 10 -3 6 -10 10 -16 10
-5 0 -9 -4 -9 -10z"/>
<path d="M15086 30776 c3 -9 14 -16 24 -16 10 0 22 -6 28 -13 6 -7 27 -19 47
-27 19 -7 35 -17 35 -22 0 -4 7 -8 16 -8 43 0 -8 37 -116 83 -14 6 -28 13 -32
15 -4 1 -5 -4 -2 -12z"/>
<path d="M14635 30750 c-3 -6 1 -7 9 -4 18 7 21 14 7 14 -6 0 -13 -4 -16 -10z"/>
<path d="M9970 30653 c0 -4 5 -15 10 -23 8 -13 10 -13 10 2 0 9 -4 20 -10 23
-5 3 -10 3 -10 -2z"/>
<path d="M9980 30584 c0 -8 5 -12 10 -9 6 4 8 11 5 16 -9 14 -15 11 -15 -7z"/>
<path d="M10003 30395 c0 -27 2 -38 4 -22 2 15 2 37 0 50 -2 12 -4 0 -4 -28z"/>
<path d="M10027 30213 c-11 -10 -8 -43 3 -43 6 0 10 11 10 25 0 26 -2 29 -13
18z"/>
<path d="M11570 27171 c0 -5 7 -12 16 -15 14 -5 15 -4 4 9 -14 17 -20 19 -20
6z"/>
<path d="M12030 26810 c0 -5 5 -10 11 -10 5 0 7 5 4 10 -3 6 -8 10 -11 10 -2
0 -4 -4 -4 -10z"/>
<path d="M12100 26750 c0 -5 5 -10 10 -10 6 0 10 5 10 10 0 6 -4 10 -10 10 -5
0 -10 -4 -10 -10z"/>
<path d="M12134 26715 c22 -17 36 -19 36 -6 0 10 -24 21 -43 21 -7 0 -3 -7 7
-15z"/>
<path d="M14283 24027 c-49 -26 -126 -119 -117 -142 9 -22 31 -18 45 8 31 57
104 90 202 90 45 0 83 -5 90 -12 14 -14 57 -14 57 0 0 6 -15 26 -34 45 -33 33
-36 34 -117 34 -67 -1 -92 -5 -126 -23z"/>
<path d="M19405 24031 c-71 -32 -154 -147 -126 -174 10 -10 15 -8 25 7 27 45
50 68 92 92 37 22 57 26 117 26 41 0 87 -7 108 -15 47 -21 72 -8 44 23 -54 60
-177 79 -260 41z"/>
<path d="M5140 23990 c-8 -5 -37 -10 -65 -10 -108 -1 -262 -68 -332 -145 -127
-141 -153 -212 -153 -423 0 -176 0 -176 -135 -178 -51 -1 -101 -7 -113 -13
-32 -17 -70 -68 -83 -111 -10 -34 -9 -44 11 -82 51 -100 98 -128 213 -128 57
0 88 -4 95 -13 7 -8 11 -195 11 -580 l1 -568 30 -58 c39 -79 59 -94 171 -130
95 -30 225 11 272 87 59 94 57 74 57 676 0 305 3 561 6 570 5 13 26 16 131 16
l125 0 46 46 c44 43 47 49 52 110 7 81 -10 120 -65 151 -35 20 -54 23 -155 23
-63 0 -121 4 -129 9 -18 12 -25 96 -12 146 5 22 15 60 21 85 23 94 90 130 243
130 120 0 167 20 205 85 19 34 22 50 19 107 -10 156 -89 207 -322 208 -71 0
-137 -5 -145 -10z"/>
<path d="M11670 23964 c-19 -7 -46 -13 -59 -13 -14 -1 -44 -10 -67 -21 -36
-18 -48 -32 -79 -95 l-37 -73 2 -329 c1 -180 2 -333 1 -340 -1 -16 -28 -6 -67
25 -42 34 -136 92 -149 92 -6 0 -46 11 -89 25 -68 22 -97 25 -210 25 -88 -1
-144 -6 -171 -15 -22 -8 -50 -15 -61 -15 -56 0 -277 -123 -325 -179 -121 -144
-132 -162 -181 -295 -57 -157 -69 -460 -23 -621 7 -27 19 -70 26 -95 15 -53
67 -157 112 -221 38 -54 167 -173 230 -212 60 -37 151 -66 207 -67 25 -1 63
-7 85 -15 52 -19 123 -19 168 0 20 8 56 15 79 15 88 0 226 58 297 125 31 29
56 45 65 42 8 -3 26 -24 40 -45 30 -49 80 -90 114 -97 15 -3 41 -10 58 -15 38
-12 67 -13 96 -1 13 6 39 12 58 15 46 8 98 58 138 134 l32 60 0 1007 0 1007
-36 68 c-36 69 -58 87 -135 111 -16 5 -41 13 -56 17 -18 6 -40 4 -63 -4z
m-478 -1093 c73 -35 126 -86 160 -156 22 -46 34 -81 68 -201 13 -44 8 -211 -8
-305 -5 -30 -19 -74 -31 -97 -12 -23 -21 -49 -21 -58 0 -9 -29 -46 -64 -82
-82 -85 -126 -102 -260 -102 -84 0 -103 3 -158 29 -35 16 -77 44 -94 63 -35
36 -84 131 -101 193 -6 22 -18 65 -27 96 -20 71 -21 208 -1 256 8 19 15 50 15
69 0 18 7 49 15 69 8 19 22 51 30 70 18 43 123 144 173 167 27 13 64 18 139
18 92 0 108 -3 165 -29z"/>
<path d="M14140 23842 c0 -4 5 -13 12 -20 8 -8 8 -15 1 -24 -6 -7 -14 -33 -18
-58 -4 -25 -11 -52 -16 -61 -5 -9 -9 -32 -11 -50 -1 -19 -5 -39 -10 -45 -4 -6
-13 -38 -18 -70 -6 -33 -15 -68 -20 -79 -5 -11 -11 -33 -13 -50 -3 -16 -14
-66 -26 -110 -12 -44 -21 -91 -20 -105 1 -14 -3 -36 -8 -50 -6 -14 -13 -43
-16 -64 -6 -35 -5 -37 7 -20 17 25 37 97 43 154 3 25 9 49 14 55 5 5 9 22 9
39 0 32 11 72 41 150 10 27 16 53 13 58 -3 5 6 55 20 111 32 130 56 231 56
240 0 4 -9 7 -20 7 -11 0 -20 -4 -20 -8z"/>
<path d="M19270 23788 c-11 -12 -21 -29 -21 -37 -1 -9 -3 -33 -5 -53 -2 -21
-8 -46 -14 -57 -5 -11 -10 -36 -10 -55 0 -19 -7 -50 -16 -69 -12 -25 -13 -41
-6 -67 l9 -35 7 40 c4 22 11 54 16 71 6 17 10 43 10 58 0 14 7 43 15 63 8 19
15 51 15 70 0 19 7 47 15 63 18 36 13 38 -15 8z"/>
<path d="M13200 23349 c-25 -6 -74 -14 -110 -18 -59 -7 -155 -33 -235 -63 -16
-7 -50 -27 -74 -45 -24 -18 -50 -33 -57 -33 -8 0 -31 -15 -51 -33 -21 -18 -54
-43 -74 -55 -38 -23 -169 -156 -169 -171 0 -5 6 -13 13 -20 10 -8 23 -1 53 30
75 78 244 199 344 246 153 72 265 96 460 97 211 1 362 -42 460 -130 22 -20 43
-34 46 -31 8 7 -30 79 -53 99 -33 30 -156 88 -228 108 -84 22 -262 33 -325 19z"/>
<path d="M14834 23342 c-149 -35 -394 -189 -394 -248 0 -31 11 -30 40 1 56 60
204 137 330 173 72 20 314 22 390 3 72 -17 154 -63 207 -114 76 -73 68 -15 -9
70 -44 47 -103 79 -213 115 -71 22 -253 23 -351 0z"/>
<path d="M16550 23348 c-19 -5 -64 -14 -100 -18 -153 -19 -233 -50 -405 -159
-82 -51 -207 -164 -243 -219 -12 -18 -12 -25 -1 -38 11 -13 21 -7 78 49 86 83
138 123 241 186 158 95 312 134 535 133 214 0 331 -38 460 -148 69 -58 84 -53
36 12 -47 64 -91 100 -172 139 -75 35 -120 47 -264 65 -87 11 -121 11 -165 -2z"/>
<path d="M18210 23345 c-19 -8 -50 -14 -68 -14 -57 -2 -248 -70 -296 -107 -25
-19 -51 -34 -59 -34 -7 0 -31 -15 -53 -33 -21 -18 -57 -44 -79 -59 -78 -50
-142 -125 -131 -153 9 -25 26 -17 94 47 68 63 221 167 302 206 53 25 150 55
235 73 80 17 335 17 405 0 96 -22 199 -65 245 -103 67 -53 65 -52 65 -29 0 60
-200 191 -292 191 -22 0 -49 5 -61 11 -31 17 -264 20 -307 4z"/>
<path d="M20356 23345 c-21 -8 -53 -27 -70 -43 -17 -16 -53 -45 -81 -64 -27
-20 -75 -59 -105 -87 -30 -29 -71 -61 -90 -71 -19 -11 -61 -46 -94 -79 -32
-34 -65 -61 -74 -61 -8 0 -56 -40 -106 -89 -50 -49 -96 -90 -103 -92 -26 -8
-163 -143 -163 -161 0 -31 19 -21 107 55 47 39 107 88 133 107 27 20 64 49 82
66 53 48 266 225 327 273 31 24 76 63 101 86 76 70 134 98 201 98 47 0 64 -4
93 -27 30 -23 37 -25 42 -12 13 34 -6 67 -49 85 -61 26 -107 31 -151 16z"/>
<path d="M19137 23316 c-16 -23 -16 -32 -1 -114 4 -20 1 -40 -8 -55 -8 -12
-13 -38 -12 -57 1 -19 -4 -47 -12 -62 -8 -15 -14 -43 -14 -63 0 -20 -4 -45
-10 -55 -5 -10 -12 -39 -14 -64 -3 -25 -9 -54 -14 -63 -5 -10 -12 -45 -16 -77
-4 -33 -10 -64 -15 -70 -5 -6 -11 -35 -14 -65 -4 -29 -11 -59 -17 -67 -7 -7
-9 -22 -5 -33 3 -11 -1 -36 -10 -56 -8 -21 -15 -55 -15 -77 0 -22 -5 -49 -12
-61 -6 -12 -13 -38 -14 -57 -2 -35 -15 -97 -36 -175 -6 -22 -13 -58 -15 -79
-3 -22 -9 -48 -14 -57 -16 -31 -6 -122 22 -196 16 -42 131 -80 180 -60 13 6
49 20 79 31 41 16 56 27 58 43 l3 23 -24 -22 c-24 -22 -132 -57 -175 -58 -12
0 -41 9 -62 20 -34 17 -40 25 -40 53 0 17 -7 45 -15 61 -8 15 -15 39 -15 51 0
12 7 36 15 51 8 16 15 50 15 77 0 26 4 47 9 47 4 0 11 28 14 62 3 34 10 64 16
66 6 2 11 30 11 63 0 32 4 59 9 59 4 0 11 30 14 67 4 38 11 69 17 71 5 2 10
25 10 52 0 28 6 52 14 59 12 11 18 38 33 176 3 27 11 59 19 70 8 11 14 41 14
67 0 26 5 50 10 53 6 3 10 26 10 49 0 24 7 63 15 86 8 23 15 54 15 69 0 14 7
39 15 54 14 28 18 187 4 187 -4 0 -14 -11 -22 -24z"/>
<path d="M6380 23245 c-19 -7 -48 -14 -63 -14 -45 -1 -87 -28 -168 -107 -42
-41 -82 -74 -88 -74 -7 0 -20 15 -29 33 -9 17 -43 58 -75 90 l-58 59 -124 -4
c-119 -3 -125 -4 -166 -33 -28 -20 -46 -41 -51 -63 -5 -17 -12 -32 -16 -32
-10 0 -28 -71 -42 -170 -16 -110 -10 -1154 8 -1172 6 -6 12 -19 12 -28 0 -47
87 -155 133 -164 12 -3 36 -8 52 -11 79 -17 106 -16 169 5 86 28 106 46 144
124 l32 66 0 422 0 423 38 65 c33 58 45 69 107 102 43 23 84 37 106 38 20 0
56 7 79 15 23 8 71 15 107 15 l64 0 53 55 c29 30 55 55 59 55 4 0 15 -17 26
-37 23 -46 53 -74 108 -102 54 -27 68 -26 131 4 29 14 57 25 64 25 6 0 37 9
68 20 96 34 151 43 292 47 121 4 141 2 175 -16 81 -41 113 -100 113 -208 0
-43 -5 -85 -10 -93 -7 -12 -47 -16 -202 -22 -294 -11 -349 -18 -538 -66 -62
-16 -108 -45 -184 -120 -105 -103 -126 -159 -126 -332 0 -111 3 -132 27 -195
45 -120 193 -246 342 -291 32 -10 102 -14 231 -14 169 0 191 2 253 24 67 24
124 56 185 108 42 36 59 35 80 -4 30 -56 65 -84 134 -106 81 -27 88 -27 162
-2 85 28 102 43 136 110 l30 59 -1 403 c0 222 0 417 0 433 1 128 -2 165 -15
219 -8 34 -19 70 -23 81 -5 11 -15 36 -22 55 -17 46 -64 113 -115 164 -75 76
-153 113 -340 161 -82 20 -450 22 -515 1 -24 -8 -71 -19 -104 -26 -154 -30
-261 -77 -313 -136 -38 -42 -52 -36 -52 24 0 38 -61 111 -114 136 -41 19 -118
20 -166 1z m1250 -984 c33 -63 -15 -199 -103 -288 -28 -29 -55 -53 -60 -53 -5
0 -23 -11 -41 -25 -31 -23 -41 -25 -145 -25 -135 0 -179 17 -211 80 -26 51
-27 151 -2 199 21 43 100 98 150 106 20 3 48 10 62 14 14 5 96 9 182 10 146 1
158 0 168 -18z"/>
<path d="M8423 23178 c-94 -90 -88 -45 -90 -618 -1 -304 3 -521 8 -545 6 -22
14 -58 19 -80 15 -70 66 -148 152 -231 82 -80 121 -104 237 -145 45 -16 83
-19 224 -19 94 0 184 4 201 10 17 5 47 12 66 15 42 6 126 55 185 108 23 20 50
37 58 37 9 0 25 -17 36 -37 10 -21 27 -45 37 -54 28 -24 100 -59 123 -59 11 0
23 -4 26 -10 19 -31 194 12 250 61 68 60 65 25 65 774 l0 678 -22 36 c-23 38
-31 47 -91 99 l-38 32 -113 0 -113 0 -48 -42 c-26 -23 -58 -58 -71 -79 l-24
-39 0 -433 0 -433 -44 -91 c-53 -109 -99 -163 -169 -197 -44 -23 -64 -26 -149
-26 -78 0 -107 4 -142 21 -53 24 -65 38 -102 109 l-29 55 -6 485 c-4 389 -8
493 -20 523 -7 21 -40 63 -71 93 l-57 54 -116 0 -116 0 -56 -52z"/>
<path d="M16505 23050 c-3 -5 -25 -10 -47 -10 -51 0 -117 -29 -118 -51 0 -15
4 -15 37 2 21 10 47 19 59 19 12 0 40 6 62 14 22 8 59 13 83 11 81 -8 129 -16
134 -25 3 -4 14 -6 24 -3 13 3 34 -8 63 -35 60 -56 88 -111 88 -177 0 -75 16
-77 23 -4 6 73 -11 110 -84 179 -62 59 -82 70 -123 70 -19 0 -38 5 -41 10 -3
6 -39 10 -80 10 -41 0 -77 -4 -80 -10z"/>
<path d="M14700 23030 c0 -5 -10 -10 -22 -10 -60 0 -204 -99 -240 -165 -10
-19 -10 -19 8 -5 10 8 42 35 69 61 70 64 146 92 263 97 136 6 186 -16 250
-110 26 -38 32 -57 32 -98 0 -28 -7 -64 -16 -81 -8 -16 -12 -38 -9 -48 3 -11
-1 -36 -9 -57 -8 -22 -17 -53 -20 -71 -2 -17 -8 -38 -12 -45 -5 -7 -12 -35
-16 -63 -11 -83 -29 -159 -39 -169 -5 -6 -9 -26 -9 -45 0 -35 -4 -51 -34 -147
-9 -29 -16 -66 -16 -83 0 -17 -7 -48 -15 -68 -35 -83 -8 -198 57 -245 27 -19
46 -23 102 -23 45 0 71 4 73 12 3 7 10 10 18 7 16 -7 82 53 71 64 -4 4 -16 -3
-26 -16 -11 -13 -30 -25 -44 -28 -14 -2 -37 -9 -51 -14 -41 -15 -77 -12 -119
13 -21 12 -37 24 -35 27 2 3 -4 16 -14 30 -22 32 -23 156 -1 185 9 12 12 30 9
46 -4 15 1 43 9 64 9 21 16 53 16 71 0 19 5 34 10 34 6 0 10 22 10 48 0 27 6
57 15 68 8 10 15 35 15 55 0 19 7 44 15 55 8 10 15 35 15 54 0 19 10 69 21
110 24 87 37 160 45 246 7 72 -13 121 -73 178 -63 59 -110 76 -213 76 -53 0
-90 -4 -90 -10z"/>
<path d="M13180 22998 c-14 -6 -41 -14 -60 -19 -89 -20 -110 -28 -142 -53 -19
-14 -38 -26 -42 -26 -10 0 -67 -53 -78 -73 -8 -16 -7 -17 11 -8 11 6 24 17 28
25 10 16 120 86 142 91 9 2 29 8 44 14 16 6 41 11 57 11 16 0 31 4 34 9 21 34
255 2 349 -48 71 -38 125 -40 181 -8 54 30 61 55 9 29 -73 -38 -101 -37 -186
2 -47 22 -91 36 -115 36 -22 0 -53 7 -68 15 -33 17 -127 19 -164 3z"/>
<path d="M18235 22995 c-16 -8 -42 -14 -57 -15 -15 0 -30 -4 -33 -10 -3 -5
-13 -10 -22 -10 -8 0 -27 -8 -41 -19 -15 -10 -40 -21 -55 -25 -30 -7 -115 -81
-105 -91 3 -4 21 7 39 23 41 35 199 112 231 112 13 0 45 7 71 15 36 11 59 12
95 4 26 -5 70 -12 97 -15 28 -3 82 -21 122 -40 91 -43 157 -46 200 -10 15 13
25 28 20 32 -4 4 -16 -2 -27 -14 -15 -16 -33 -22 -61 -22 -39 0 -54 5 -155 51
-22 11 -56 19 -76 19 -20 0 -52 7 -71 15 -44 18 -131 18 -172 0z"/>
<path d="M13960 22981 c0 -11 -4 -22 -9 -25 -8 -5 -22 -57 -27 -101 -2 -11
-12 -54 -24 -95 -12 -41 -25 -93 -30 -115 -4 -22 -16 -71 -25 -110 -9 -38 -21
-90 -26 -115 -13 -67 -34 -138 -42 -146 -4 -4 -7 -27 -7 -51 0 -25 -4 -52 -9
-62 -6 -10 -19 -62 -31 -117 -11 -54 -25 -103 -30 -108 -13 -13 -13 -193 0
-201 6 -4 8 -9 6 -13 -9 -15 24 -44 61 -53 21 -6 54 -14 73 -19 25 -7 43 -5
64 5 16 8 37 15 48 15 22 0 96 65 86 75 -4 4 -20 -6 -37 -22 -16 -16 -35 -30
-43 -30 -7 0 -34 -7 -60 -14 -39 -11 -57 -11 -95 -1 -27 7 -55 20 -63 28 -20
19 -27 190 -10 259 6 27 13 57 14 65 1 8 7 25 14 37 7 12 12 35 12 52 0 16 5
33 10 36 6 3 10 25 10 48 0 23 7 55 15 71 8 15 15 40 15 55 0 15 6 35 14 46 7
11 16 38 20 60 3 22 10 65 15 95 5 30 14 68 20 83 6 16 11 41 11 57 0 16 5 32
10 35 6 3 10 21 10 38 0 18 7 45 16 62 8 16 13 38 10 48 -2 10 4 37 15 60 20
46 25 87 9 87 -5 0 -10 -9 -10 -19z"/>
<path d="M16276 22940 c-41 -44 -24 -49 21 -6 23 22 32 36 23 36 -8 0 -28 -14
-44 -30z"/>
<path d="M20413 22943 c-10 -10 -35 -27 -56 -38 -21 -11 -59 -41 -84 -67 -26
-27 -53 -48 -59 -48 -16 0 -121 -96 -136 -124 -11 -20 -10 -20 8 -6 10 8 31
27 46 41 14 15 53 45 85 67 32 22 69 52 83 67 14 15 48 42 76 60 29 18 55 39
59 45 12 20 -3 22 -22 3z"/>
<path d="M17481 22881 c-7 -5 -10 -14 -7 -20 11 -17 24 -13 36 9 12 22 -3 27
-29 11z"/>
<path d="M15760 22870 c0 -5 9 -10 20 -10 11 0 20 5 20 10 0 6 -9 10 -20 10
-11 0 -20 -4 -20 -10z"/>
<path d="M12401 22859 c-19 -7 -22 -12 -13 -21 9 -9 16 -8 29 5 21 21 15 27
-16 16z"/>
<path d="M15720 22795 c0 -8 6 -15 14 -15 8 0 16 7 20 15 4 10 -1 15 -14 15
-11 0 -20 -7 -20 -15z"/>
<path d="M15706 22751 c-4 -7 -5 -15 -2 -18 9 -9 19 4 14 18 -4 11 -6 11 -12
0z"/>
<path d="M12320 22730 c-12 -7 -12 -12 -3 -21 10 -10 14 -9 19 5 8 22 2 27
-16 16z"/>
<path d="M15688 22693 c7 -3 16 -2 19 1 4 3 -2 6 -13 5 -11 0 -14 -3 -6 -6z"/>
<path d="M12305 22677 c-4 -10 -5 -21 -1 -24 10 -10 18 4 13 24 -4 17 -4 17
-12 0z"/>
<path d="M16116 22638 c-13 -51 -31 -48 377 -46 l382 3 0 30 0 30 -376 3 -377
2 -6 -22z"/>
<path d="M12264 22568 c-10 -29 -19 -63 -21 -75 -1 -12 -7 -31 -12 -42 -14
-26 -15 -387 -1 -396 6 -3 10 -14 10 -24 0 -47 69 -157 143 -228 108 -103 212
-150 357 -160 41 -2 79 -9 84 -14 15 -14 118 -11 162 4 22 8 59 12 82 9 26 -2
59 2 80 11 21 8 69 25 107 37 90 28 162 64 192 97 29 31 23 43 -6 14 -12 -12
-44 -31 -71 -43 -28 -12 -50 -25 -50 -30 0 -4 -16 -8 -35 -8 -19 0 -35 -4 -35
-8 0 -22 -215 -55 -355 -55 -87 1 -238 17 -286 32 -156 48 -314 203 -344 340
-3 17 -11 33 -16 36 -5 4 -9 84 -9 179 0 131 4 181 14 201 8 15 17 50 21 76 4
27 11 49 16 49 12 0 12 37 0 44 -5 4 -17 -18 -27 -46z"/>
<path d="M15641 22558 c-37 -99 -41 -126 -41 -297 0 -139 3 -184 18 -225 9
-28 20 -53 23 -56 3 -3 12 -23 20 -45 31 -88 194 -214 336 -261 27 -8 57 -19
68 -24 11 -5 52 -12 90 -14 39 -3 94 -8 123 -12 33 -4 64 -1 83 6 16 7 57 13
92 13 34 0 71 5 82 10 11 6 31 12 45 14 49 6 106 26 215 75 129 58 150 71 166
100 l11 21 -28 -20 c-16 -11 -56 -33 -89 -49 -33 -16 -61 -32 -63 -36 -2 -5
-11 -8 -20 -8 -9 0 -26 -7 -36 -15 -11 -8 -30 -15 -43 -15 -13 0 -31 -4 -41
-9 -33 -18 -151 -41 -210 -41 -32 0 -63 -5 -69 -11 -16 -16 -283 8 -358 32
-80 27 -191 89 -243 136 -55 50 -112 146 -112 189 0 13 -4 24 -8 24 -24 0 -32
60 -32 223 0 137 3 178 16 202 13 25 26 115 16 115 -1 0 -6 -10 -11 -22z"/>
<path d="M17310 22543 c0 -18 5 -33 10 -33 13 0 13 30 0 50 -7 11 -10 7 -10
-17z"/>
<path d="M19950 22500 c0 -5 7 -10 15 -10 8 0 15 5 15 10 0 6 -7 10 -15 10 -8
0 -15 -4 -15 -10z"/>
<path d="M17219 22490 c0 -8 -18 -30 -41 -47 l-40 -33 -548 0 c-364 0 -551 -3
-555 -10 -4 -7 175 -10 559 -8 l566 3 41 43 c32 32 39 46 31 54 -9 9 -12 8
-13 -2z"/>
<path d="M17295 22480 c-3 -11 -3 -30 1 -42 5 -13 7 -86 5 -163 -2 -119 1
-149 18 -203 44 -136 124 -253 208 -309 113 -73 241 -125 294 -118 17 2 50 -3
73 -10 49 -17 157 -20 173 -4 6 6 44 13 85 15 145 7 372 87 407 144 l16 25
-25 -17 c-49 -34 -144 -78 -167 -78 -12 0 -23 -4 -23 -9 0 -6 -21 -13 -47 -16
-27 -4 -57 -10 -68 -15 -22 -10 -140 -20 -255 -22 -91 -1 -221 15 -275 35 -83
31 -129 56 -223 123 -13 9 -31 31 -39 50 -9 19 -20 34 -24 34 -10 0 -69 125
-69 145 0 7 -7 21 -16 29 -13 13 -15 44 -12 201 2 102 0 185 -4 185 -5 0 -8 9
-8 20 0 11 -4 20 -9 20 -5 0 -13 -9 -16 -20z"/>
<path d="M19460 22420 c0 -5 9 -14 21 -20 26 -14 85 -77 107 -112 9 -16 20
-28 24 -28 4 0 8 -5 8 -10 0 -14 74 -122 111 -161 16 -17 29 -37 29 -44 0 -7
4 -15 8 -17 5 -1 32 -37 59 -78 28 -41 63 -86 77 -99 14 -14 26 -30 26 -36 0
-6 9 -21 20 -33 11 -11 28 -36 38 -54 12 -22 36 -42 73 -60 48 -24 60 -26 94
-17 22 6 52 13 66 16 27 5 103 63 82 63 -6 0 -18 -7 -26 -15 -15 -14 -70 -32
-133 -42 -37 -6 -124 29 -124 49 0 7 -11 27 -25 43 -15 17 -36 44 -48 62 -12
17 -42 58 -67 90 -25 32 -49 65 -55 74 -48 76 -87 129 -96 129 -5 0 -14 11
-19 24 -5 13 -24 44 -42 69 -18 24 -40 54 -48 66 -60 90 -160 178 -160 141z"/>
<path d="M19390 22400 c-7 -13 -7 -20 -1 -20 6 0 15 9 21 20 7 13 7 20 1 20
-6 0 -15 -9 -21 -20z"/>
<path d="M16890 22138 c-25 -11 -85 -40 -135 -64 -149 -72 -194 -83 -328 -84
-126 0 -190 12 -284 55 -28 13 -56 32 -62 42 -6 10 -11 12 -11 5 0 -15 19 -50
45 -80 68 -80 296 -115 466 -72 72 18 207 77 309 135 61 34 126 31 152 -9 14
-22 20 4 8 34 -26 62 -80 75 -160 38z"/>
<path d="M12710 22122 c0 -30 41 -89 82 -119 49 -35 143 -63 209 -63 102 1
244 33 352 79 59 25 138 27 172 5 17 -11 25 -12 25 -5 0 22 -30 70 -49 81 -40
21 -69 14 -271 -63 -47 -18 -77 -21 -215 -21 -158 -1 -161 -1 -207 27 -26 16
-59 43 -73 60 -14 18 -25 26 -25 19z"/>
<path d="M18455 22084 c-27 -13 -56 -24 -62 -24 -7 0 -47 -12 -89 -26 -68 -22
-88 -25 -192 -22 -114 4 -136 9 -230 51 -50 23 -61 18 -38 -18 36 -55 155
-105 250 -105 100 0 272 38 356 79 47 22 154 30 165 11 10 -17 25 -11 25 9 0
11 -14 31 -31 45 -39 33 -86 33 -154 0z"/>
</g>
</svg>
